<svg xmlns="http://www.w3.org/2000/svg" xmlns:xlink="http://www.w3.org/1999/xlink" width="64px" height="64px" viewBox="0 0 32 32" xml:space="preserve" fill="#000000"><g id="SVGRepo_bgCarrier" stroke-width="0"></g><g id="SVGRepo_tracerCarrier" stroke-linecap="round" stroke-linejoin="round"></g><g id="SVGRepo_iconCarrier"> <style type="text/css"> .st0{stroke:#231F20;stroke-width:2;stroke-linecap:round;stroke-linejoin:round;stroke-miterlimit:10;} </style> <g id="Musik_icon"> <g> <path d="M16,1c-2.82,0-5.45,0.78-7.7,2.13l0.57,0.82l0.58,0.83C11.37,3.65,13.62,3,16,3c7.17,0,13,5.83,13,13 c0,7.17-5.83,13-13,13C9.76,29,4.53,24.58,3.28,18.7l-1,0.14l-0.99,0.13C2.68,25.82,8.75,31,16,31c8.27,0,15-6.73,15-15 C31,7.73,24.27,1,16,1z"></path> <path d="M3.02,16.72C3.01,16.48,3,16.24,3,16c0-4.07,1.87-7.7,4.8-10.09L7.23,5.09L6.67,4.27C3.21,7.02,1,11.26,1,16 c0,0.33,0.01,0.66,0.04,0.99l0.99-0.13L3.02,16.72z"></path> <circle cx="22" cy="15" r="1"></circle> <circle cx="15.5" cy="22.5" r="0.5"></circle> <path d="M16.13,16.99L6.27,18.3l-1.99,0.27C5.45,23.96,10.26,28,16,28c6.62,0,12-5.38,12-12S22.62,4,16,4 c-2.18,0-4.22,0.58-5.98,1.6l1.14,1.65l5.66,8.18c0.2,0.29,0.24,0.66,0.1,0.97C16.77,16.72,16.48,16.95,16.13,16.99z M11,21h-1 c-0.55,0-1-0.45-1-1s0.45-1,1-1h1c0.55,0,1,0.45,1,1S11.55,21,11,21z M22,22h-2c-0.55,0-1-0.45-1-1s0.45-1,1-1h2 c0.55,0,1,0.45,1,1S22.55,22,22,22z M22,12c1.65,0,3,1.35,3,3c0,1.65-1.35,3-3,3s-3-1.35-3-3C19,13.35,20.35,12,22,12z M16,10 c0-0.55,0.45-1,1-1h1c0.55,0,1,0.45,1,1s-0.45,1-1,1h-1C16.45,11,16,10.55,16,10z M18,22.5c0,1.38-1.12,2.5-2.5,2.5 S13,23.88,13,22.5s1.12-2.5,2.5-2.5S18,21.12,18,22.5z"></path> <path d="M8.37,6.74C5.7,8.94,4,12.28,4,16c0,0.2,0,0.39,0.02,0.59l1.99-0.26l8.24-1.1L9.52,8.39L8.37,6.74z M11,13 c0,0.55-0.45,1-1,1H9c-0.55,0-1-0.45-1-1s0.45-1,1-1h1C10.55,12,11,12.45,11,13z"></path> </g> </g> </g></svg>