<svg xmlns="http://www.w3.org/2000/svg" xmlns:xlink="http://www.w3.org/1999/xlink" height="64px" width="64px" id="_x32_" viewBox="0 0 512 512" xml:space="preserve" fill="#000000"><g id="SVGRepo_bgCarrier" stroke-width="0"></g><g id="SVGRepo_tracerCarrier" stroke-linecap="round" stroke-linejoin="round"></g><g id="SVGRepo_iconCarrier"> <style type="text/css"> .st0{fill:#000000;} </style> <g> <path class="st0" d="M437.552,417.418c-0.123-15.132-0.301-9.195-0.562-20.3c-0.131-5.552-0.27-10.28-0.446-13.907 c-0.093-1.826-0.185-3.366-0.292-4.636c-0.124-1.333-0.186-2.202-0.486-3.496c-3.288-13.584-9.833-24.427-18.02-32.79 c-12.298-12.568-27.962-19.729-42.393-24.658c-7.224-2.464-14.178-4.367-20.284-6.022c-6.107-1.664-11.405-3.104-15.078-4.482 c-7.215-2.695-14.847-6.16-20.168-9.896c-2.657-1.856-4.706-3.766-5.892-5.391c-1.201-1.663-1.524-2.818-1.54-3.819 c0-6.939,0-15.626,0-27.046c9.234-10.281,22.51-26.199,27.954-51.45c1.91-0.863,3.789-1.826,5.607-3.088 c4.512-3.119,8.348-7.648,11.598-13.8c3.272-6.184,6.16-14.085,9.248-24.898c1.564-5.483,2.288-10.242,2.288-14.485 c0.015-4.89-0.994-9.125-2.842-12.575c-2.772-5.213-7.262-8.117-10.896-9.442c-0.647-0.231-1.202-0.346-1.779-0.508h2.141 c0,0-5.483-57.764-5.483-78.041C350.224,32.405,291.45,0,255.996,0c-35.448,0-94.221,32.405-94.221,52.689 c0,20.276-5.483,78.041-5.483,78.041h1.432c-0.023,0.084-0.084,0.2-0.115,0.277c-1.501,0.47-3.08,1.071-4.782,2.11 c-2.602,1.602-5.236,4.12-7.069,7.562c-1.848,3.45-2.857,7.686-2.85,12.575c0,4.244,0.724,9.002,2.288,14.485 c4.135,14.401,7.87,23.696,12.698,30.519c2.418,3.381,5.168,6.107,8.155,8.178c1.818,1.262,3.697,2.225,5.599,3.088 c5.452,25.251,18.721,41.169,27.954,51.45c0,11.42,0,20.107,0,27.046c0,0.855-0.339,2.086-1.664,3.842 c-1.94,2.618-5.968,5.776-10.743,8.463c-4.774,2.711-10.257,5.059-15.054,6.746c-4.975,1.771-12.668,3.612-21.401,6.014 c-13.122,3.65-28.747,8.61-42.709,17.758c-13.954,9.087-26.275,22.81-31.466,42.817c-0.192,0.755-0.269,1.302-0.362,1.926 c-0.292,2.303-0.493,5.614-0.685,10.173c-1.293,31.558-1.348,98.941-1.355,116.222c0,1.902,0.007,2.949,0.007,2.949l0.008,7.07 h181.818h181.825l0.007-7.07c0,0,0.008-3.219,0.008-8.702C437.837,480.858,437.806,447.675,437.552,417.418z M313.367,315.52 l31.096,32.921l-29.117,22.379l10.673,24.75l-60.652,18.398L313.367,315.52z M230.268,52.35h51.464v23.219h-51.464V52.35z M184.694,203.164l-0.717-4.05l-3.874-1.386c-2.456-0.878-4.336-1.771-5.976-2.912c-2.418-1.71-4.612-4.043-7.177-8.817 c-2.527-4.752-5.214-11.844-8.148-22.14c-1.286-4.498-1.74-8.01-1.74-10.605c0-3.018,0.577-4.774,1.17-5.89 c0.893-1.625,1.986-2.31,3.372-2.865c1.148-0.447,2.342-0.554,2.796-0.57l2.133,0.262v8.956l15.957,32.074v-58.033 c17.311-7,42.069-16.172,69.7-16.172c21.586,0,42.686,5.606,60.121,11.397l17.196,8.109v54.699l15.949-32.074v-9.08l1.971-0.154 c0.346-0.024,2.726,0.192,4.258,1.217c0.809,0.516,1.471,1.116,2.072,2.233c0.593,1.116,1.171,2.872,1.178,5.89 c0,2.603-0.462,6.107-1.748,10.605c-3.896,13.738-7.393,21.732-10.604,26.167c-1.61,2.233-3.08,3.642-4.712,4.79 c-1.64,1.14-3.519,2.033-5.984,2.912l-3.866,1.386l-0.716,4.05c-4.528,25.36-17.596,39.621-27.246,50.364l-1.817,2.018v2.726 c0,12.861,0,22.24,0,29.749c-0.008,4.667,1.802,8.856,4.289,12.205c0.509,0.678,1.109,1.278,1.664,1.918l-13.7,28.085h-68.993 l-13.762-28.216c0.47-0.554,1.032-1.017,1.471-1.595c2.565-3.372,4.544-7.585,4.544-12.398c0-7.509,0-16.888,0-29.749v-2.726 l-1.818-2.018C202.29,242.785,189.222,228.524,184.694,203.164z M198.632,315.52l48,98.448l-60.66-18.398l10.674-24.75 l-29.11-22.379L198.632,315.52z M341.445,500.249H172.911l-56.186-30.557h280.897L341.445,500.249z M397.623,460.042H116.726 v-38.596h280.897V460.042z"></path> </g> </g></svg>